<svg width="18" height="18" viewBox="0 0 18 18" fill="none" xmlns="http://www.w3.org/2000/svg">
<path d="M10.0832 8.58154C10.3067 8.5848 10.5286 8.5436 10.736 8.46032C10.9434 8.37705 11.1322 8.25336 11.2914 8.09646C11.4506 7.93956 11.577 7.75258 11.6633 7.54638C11.7496 7.34019 11.794 7.1189 11.794 6.89538V6.89538C11.794 6.44819 11.6163 6.01931 11.3001 5.70309C10.9839 5.38688 10.555 5.20923 10.1078 5.20923H7.51089C7.34768 5.20923 7.19116 5.27406 7.07575 5.38947C6.96034 5.50488 6.89551 5.6614 6.89551 5.82461V11.9785C6.89551 12.1417 6.96034 12.2982 7.07575 12.4136C7.19116 12.529 7.34768 12.5938 7.51089 12.5938H10.0832C10.612 12.5938 11.1191 12.3838 11.4931 12.0099C11.867 11.6359 12.077 11.1288 12.077 10.6C12.077 10.0712 11.867 9.56405 11.4931 9.19014C11.1191 8.81622 10.612 8.60615 10.0832 8.60615V8.58154Z" stroke="#A7F46A" stroke-linecap="round" stroke-linejoin="round"/>
<path d="M10.1078 8.58148H6.89551" stroke="#A7F46A" stroke-linecap="round" stroke-linejoin="round"/>
<path d="M8.06494 5.20921V4.0769" stroke="#A7F46A" stroke-linecap="round" stroke-linejoin="round"/>
<path d="M9.96045 5.20921V4.0769" stroke="#A7F46A" stroke-linecap="round" stroke-linejoin="round"/>
<path d="M8.06494 13.9231V12.5693" stroke="#A7F46A" stroke-linecap="round" stroke-linejoin="round"/>
<path d="M9.96045 13.9231V12.5693" stroke="#A7F46A" stroke-linecap="round" stroke-linejoin="round"/>
<path d="M9 17C13.4183 17 17 13.4183 17 9C17 4.58172 13.4183 1 9 1C4.58172 1 1 4.58172 1 9C1 13.4183 4.58172 17 9 17Z" stroke="#A7F46A" stroke-linecap="round" stroke-linejoin="round"/>
</svg>
