<svg width="17" height="17" viewBox="0 0 17 17" fill="none" xmlns="http://www.w3.org/2000/svg">
<path d="M4.74756 5.61536L5.03602 6.7692" stroke="#A7F46A" stroke-linecap="round" stroke-linejoin="round"/>
<path d="M8.78602 5.61536L8.49756 6.7692" stroke="#A7F46A" stroke-linecap="round" stroke-linejoin="round"/>
<path d="M2.52096 9.07691H11.9594L13.1133 3.30768H1.57481C1.49043 3.30799 1.40714 3.3268 1.33083 3.3628C1.25451 3.39879 1.18701 3.45109 1.1331 3.516C1.07919 3.58091 1.04018 3.65686 1.01881 3.73849C0.997438 3.82012 0.994235 3.90545 1.00942 3.98845L1.95558 8.60383C1.97765 8.73728 2.04683 8.85839 2.15056 8.94519C2.2543 9.03199 2.38572 9.07872 2.52096 9.07691V9.07691Z" stroke="#A7F46A" stroke-linecap="round" stroke-linejoin="round"/>
<path d="M13.1133 3.30769L13.5979 1.46154C13.6245 1.33123 13.6953 1.21411 13.7983 1.13C13.9014 1.0459 14.0303 0.999973 14.1633 1H15.9979" stroke="#A7F46A" stroke-linecap="round" stroke-linejoin="round"/>
<path d="M11.9592 9.0769L11.4746 11.5C11.448 11.6303 11.3772 11.7474 11.2742 11.8315C11.1712 11.9156 11.0422 11.9615 10.9092 11.9615H3.88232" stroke="#A7F46A" stroke-linecap="round" stroke-linejoin="round"/>
<path d="M4.45925 16C4.77787 16 5.03617 15.7417 5.03617 15.4231C5.03617 15.1044 4.77787 14.8461 4.45925 14.8461C4.14062 14.8461 3.88232 15.1044 3.88232 15.4231C3.88232 15.7417 4.14062 16 4.45925 16Z" stroke="#A7F46A" stroke-linecap="round" stroke-linejoin="round"/>
<path d="M10.2283 16C10.5469 16 10.8052 15.7417 10.8052 15.4231C10.8052 15.1044 10.5469 14.8461 10.2283 14.8461C9.90966 14.8461 9.65137 15.1044 9.65137 15.4231C9.65137 15.7417 9.90966 16 10.2283 16Z" stroke="#A7F46A" stroke-linecap="round" stroke-linejoin="round"/>
</svg>
