<svg width="24" height="24" viewBox="0 0 24 24" fill="none" xmlns="http://www.w3.org/2000/svg">
<path d="M5 8.2C5 7.07989 5 6.51984 5.21799 6.09202C5.40973 5.71569 5.71569 5.40973 6.09202 5.21799C6.51984 5 7.07989 5 8.2 5H15.8C16.9201 5 17.4802 5 17.908 5.21799C18.2843 5.40973 18.5903 5.71569 18.782 6.09202C19 6.51984 19 7.07989 19 8.2V15.8C19 16.9201 19 17.4802 18.782 17.908C18.5903 18.2843 18.2843 18.5903 17.908 18.782C17.4802 19 16.9201 19 15.8 19H8.2C7.07989 19 6.51984 19 6.09202 18.782C5.71569 18.5903 5.40973 18.2843 5.21799 17.908C5 17.4802 5 16.9201 5 15.8V8.2Z" stroke="white" stroke-linecap="round"/>
<path d="M17 19L14 8" stroke="white"/>
<path d="M19 7L5 9" stroke="white"/>
<path d="M13 13.6471C13 15.1655 11.6552 16.2602 10.9383 16.7359C10.6699 16.914 10.3301 16.914 10.0617 16.7359C9.34477 16.2602 8 15.1655 8 13.6471C8 12.0588 9.21134 11 10.5 11C11.8333 11 13 12.0588 13 13.6471Z" stroke="white"/>
</svg>
