<svg width="19" height="19" viewBox="0 0 19 19" fill="none" xmlns="http://www.w3.org/2000/svg">
<path d="M9.5 1V6.23077" stroke="#A7F46A" stroke-linecap="round" stroke-linejoin="round"/>
<path d="M11.4614 14.7308H14.7307" stroke="#A7F46A" stroke-linecap="round" stroke-linejoin="round"/>
<path d="M1 6.23077H18V16.6923C18 17.0391 17.8622 17.3718 17.617 17.617C17.3717 17.8622 17.0391 18 16.6923 18H2.30769C1.96087 18 1.62825 17.8622 1.38301 17.617C1.13777 17.3718 1 17.0391 1 16.6923V6.23077Z" stroke="#A7F46A" stroke-linecap="round" stroke-linejoin="round"/>
<path d="M1 6.23077L2.96154 2.45154C3.173 2.02559 3.49661 1.66535 3.89753 1.40959C4.29845 1.15383 4.76152 1.01222 5.23692 1H13.7631C14.2496 1.00026 14.7265 1.13625 15.14 1.39267C15.5535 1.6491 15.8873 2.0158 16.1038 2.45154L18 6.23077" stroke="#A7F46A" stroke-linecap="round" stroke-linejoin="round"/>
</svg>
